M48
; DRILL file {KiCad (6.0.8)} date Wed Jan 11 07:54:23 2023
; FORMAT={-:-/ absolute / inch / decimal}
; #@! TF.CreationDate,2023-01-11T07:54:23-05:00
; #@! TF.GenerationSoftware,Kicad,Pcbnew,(6.0.8)
; #@! TF.FileFunction,Plated,1,2,PTH
FMAT,2
INCH
; #@! TA.AperFunction,Plated,PTH,ViaDrill
T1C0.0157
; #@! TA.AperFunction,Plated,PTH,ComponentDrill
T2C0.0157
; #@! TA.AperFunction,Plated,PTH,ComponentDrill
T3C0.0197
; #@! TA.AperFunction,Plated,PTH,ComponentDrill
T4C0.0315
%
G90
G05
T1
X5.0197Y-4.0748
X5.0907Y-4.236
X5.1295Y-4.3323
X5.185Y-4.2972
X5.2224Y-4.3209
X5.2949Y-4.0961
X5.3539Y-4.0173
X5.3972Y-4.2969
X5.5059Y-4.2776
X5.5472Y-4.3524
X5.5488Y-4.3067
X5.6673Y-4.2913
X5.6713Y-4.3504
X5.7638Y-4.0728
T2
X5.1177Y-4.1689
X5.1335Y-4.1413
X5.165Y-4.1413
X5.1807Y-4.1689
X5.1965Y-4.1413
X5.2122Y-4.1689
X5.2437Y-4.1689
X5.2594Y-4.1413
X5.2752Y-4.1689
X5.2909Y-4.1413
X5.3224Y-4.1413
X5.3382Y-4.1689
T4
X4.8996Y-4.1689
X4.9783Y-4.1689
X5.5094Y-4.1689
X5.5882Y-4.1689
X5.6669Y-4.1689
X5.7457Y-4.1689
X5.8244Y-4.1689
X5.9031Y-4.1689
T3
G00X5.0512Y-3.9843
M15
G01X5.0512Y-3.9606
M16
G05
G00X5.0654Y-4.1571
M15
G01X5.0654Y-4.1335
M16
G05
G00X5.3906Y-4.1571
M15
G01X5.3906Y-4.1335
M16
G05
G00X5.4047Y-3.9843
M15
G01X5.4047Y-3.9606
M16
G05
T0
M30
