%TF.GenerationSoftware,KiCad,Pcbnew,(6.0.8)*%
%TF.CreationDate,2023-01-11T07:54:23-05:00*%
%TF.ProjectId,Model-U-GCC-V2,4d6f6465-6c2d-4552-9d47-43432d56322e,rev?*%
%TF.SameCoordinates,Original*%
%TF.FileFunction,Soldermask,Top*%
%TF.FilePolarity,Negative*%
%FSLAX46Y46*%
G04 Gerber Fmt 4.6, Leading zero omitted, Abs format (unit mm)*
G04 Created by KiCad (PCBNEW (6.0.8)) date 2023-01-11 07:54:23*
%MOMM*%
%LPD*%
G01*
G04 APERTURE LIST*
G04 Aperture macros list*
%AMRoundRect*
0 Rectangle with rounded corners*
0 $1 Rounding radius*
0 $2 $3 $4 $5 $6 $7 $8 $9 X,Y pos of 4 corners*
0 Add a 4 corners polygon primitive as box body*
4,1,4,$2,$3,$4,$5,$6,$7,$8,$9,$2,$3,0*
0 Add four circle primitives for the rounded corners*
1,1,$1+$1,$2,$3*
1,1,$1+$1,$4,$5*
1,1,$1+$1,$6,$7*
1,1,$1+$1,$8,$9*
0 Add four rect primitives between the rounded corners*
20,1,$1+$1,$2,$3,$4,$5,0*
20,1,$1+$1,$4,$5,$6,$7,0*
20,1,$1+$1,$6,$7,$8,$9,0*
20,1,$1+$1,$8,$9,$2,$3,0*%
G04 Aperture macros list end*
%ADD10R,1.350000X1.350000*%
%ADD11O,1.350000X1.350000*%
%ADD12C,0.700000*%
%ADD13R,0.300000X0.900000*%
%ADD14C,0.650000*%
%ADD15O,1.000000X1.600000*%
%ADD16RoundRect,0.200000X0.200000X0.275000X-0.200000X0.275000X-0.200000X-0.275000X0.200000X-0.275000X0*%
%ADD17RoundRect,0.200000X-0.200000X-0.275000X0.200000X-0.275000X0.200000X0.275000X-0.200000X0.275000X0*%
G04 APERTURE END LIST*
D10*
%TO.C,J2*%
X139940000Y-105890000D03*
D11*
X141940000Y-105890000D03*
X143940000Y-105890000D03*
X145940000Y-105890000D03*
X147940000Y-105890000D03*
X149940000Y-105890000D03*
%TD*%
D12*
%TO.C,J1*%
X129040000Y-106540000D03*
X136390000Y-106540000D03*
D13*
X135540000Y-107100000D03*
X135040000Y-107100000D03*
X134540000Y-107100000D03*
X134040000Y-107100000D03*
X133540000Y-107100000D03*
X133040000Y-107100000D03*
X132540000Y-107100000D03*
X132040000Y-107100000D03*
X131540000Y-107100000D03*
X131040000Y-107100000D03*
X130540000Y-107100000D03*
X130040000Y-107100000D03*
D14*
X129990000Y-105890000D03*
X130390000Y-105190000D03*
X131190000Y-105190000D03*
X131590000Y-105890000D03*
X131990000Y-105190000D03*
X132390000Y-105890000D03*
X133190000Y-105890000D03*
X133590000Y-105190000D03*
X133990000Y-105890000D03*
X134390000Y-105190000D03*
X135190000Y-105190000D03*
X135590000Y-105890000D03*
D15*
X128660000Y-105290000D03*
X136920000Y-105290000D03*
X128300000Y-100900000D03*
X137280000Y-100900000D03*
%TD*%
D10*
%TO.C,J3*%
X124450000Y-105890000D03*
D11*
X126450000Y-105890000D03*
%TD*%
D16*
%TO.C,R1*%
X147175000Y-108750000D03*
X145525000Y-108750000D03*
%TD*%
D17*
%TO.C,R2*%
X145575000Y-110450000D03*
X147225000Y-110450000D03*
%TD*%
M02*
