%TF.GenerationSoftware,KiCad,Pcbnew,(6.0.8)*%
%TF.CreationDate,2023-01-11T07:54:23-05:00*%
%TF.ProjectId,Model-U-GCC-V2,4d6f6465-6c2d-4552-9d47-43432d56322e,rev?*%
%TF.SameCoordinates,Original*%
%TF.FileFunction,Copper,L1,Top*%
%TF.FilePolarity,Positive*%
%FSLAX46Y46*%
G04 Gerber Fmt 4.6, Leading zero omitted, Abs format (unit mm)*
G04 Created by KiCad (PCBNEW (6.0.8)) date 2023-01-11 07:54:23*
%MOMM*%
%LPD*%
G01*
G04 APERTURE LIST*
G04 Aperture macros list*
%AMRoundRect*
0 Rectangle with rounded corners*
0 $1 Rounding radius*
0 $2 $3 $4 $5 $6 $7 $8 $9 X,Y pos of 4 corners*
0 Add a 4 corners polygon primitive as box body*
4,1,4,$2,$3,$4,$5,$6,$7,$8,$9,$2,$3,0*
0 Add four circle primitives for the rounded corners*
1,1,$1+$1,$2,$3*
1,1,$1+$1,$4,$5*
1,1,$1+$1,$6,$7*
1,1,$1+$1,$8,$9*
0 Add four rect primitives between the rounded corners*
20,1,$1+$1,$2,$3,$4,$5,0*
20,1,$1+$1,$4,$5,$6,$7,0*
20,1,$1+$1,$6,$7,$8,$9,0*
20,1,$1+$1,$8,$9,$2,$3,0*%
G04 Aperture macros list end*
%TA.AperFunction,ComponentPad*%
%ADD10R,1.350000X1.350000*%
%TD*%
%TA.AperFunction,ComponentPad*%
%ADD11O,1.350000X1.350000*%
%TD*%
%TA.AperFunction,SMDPad,CuDef*%
%ADD12R,0.300000X0.900000*%
%TD*%
%TA.AperFunction,ComponentPad*%
%ADD13C,0.650000*%
%TD*%
%TA.AperFunction,ComponentPad*%
%ADD14O,1.000000X1.600000*%
%TD*%
%TA.AperFunction,SMDPad,CuDef*%
%ADD15RoundRect,0.200000X0.200000X0.275000X-0.200000X0.275000X-0.200000X-0.275000X0.200000X-0.275000X0*%
%TD*%
%TA.AperFunction,SMDPad,CuDef*%
%ADD16RoundRect,0.200000X-0.200000X-0.275000X0.200000X-0.275000X0.200000X0.275000X-0.200000X0.275000X0*%
%TD*%
%TA.AperFunction,ViaPad*%
%ADD17C,0.800000*%
%TD*%
%TA.AperFunction,Conductor*%
%ADD18C,0.400000*%
%TD*%
%TA.AperFunction,Conductor*%
%ADD19C,0.300000*%
%TD*%
%TA.AperFunction,Conductor*%
%ADD20C,0.250000*%
%TD*%
G04 APERTURE END LIST*
D10*
%TO.P,J2,1*%
%TO.N,3V3*%
X139940000Y-105890000D03*
D11*
%TO.P,J2,2*%
%TO.N,VBUS*%
X141940000Y-105890000D03*
%TO.P,J2,3*%
%TO.N,D3V*%
X143940000Y-105890000D03*
%TO.P,J2,4*%
%TO.N,GND*%
X145940000Y-105890000D03*
%TO.P,J2,5*%
X147940000Y-105890000D03*
%TO.P,J2,6*%
X149940000Y-105890000D03*
%TD*%
D12*
%TO.P,J1,A1*%
%TO.N,GND*%
X135540000Y-107100000D03*
%TO.P,J1,A2*%
%TO.N,3V3*%
X135040000Y-107100000D03*
%TO.P,J1,A3*%
%TO.N,Net-(J1-PadA3)*%
X134540000Y-107100000D03*
%TO.P,J1,A4*%
%TO.N,VBUS*%
X134040000Y-107100000D03*
%TO.P,J1,A5*%
%TO.N,Net-(J1-PadA5)*%
X133540000Y-107100000D03*
%TO.P,J1,A6*%
%TO.N,D+*%
X133040000Y-107100000D03*
%TO.P,J1,A7*%
%TO.N,D-*%
X132540000Y-107100000D03*
%TO.P,J1,A8*%
%TO.N,Net-(J1-PadA8)*%
X132040000Y-107100000D03*
%TO.P,J1,A9*%
%TO.N,VBUS*%
X131540000Y-107100000D03*
%TO.P,J1,A10*%
%TO.N,Net-(J1-PadA10)*%
X131040000Y-107100000D03*
%TO.P,J1,A11*%
%TO.N,D3V*%
X130540000Y-107100000D03*
%TO.P,J1,A12*%
%TO.N,GND*%
X130040000Y-107100000D03*
D13*
%TO.P,J1,B1*%
X129990000Y-105890000D03*
%TO.P,J1,B2*%
%TO.N,3V3*%
X130390000Y-105190000D03*
%TO.P,J1,B3*%
%TO.N,Net-(J1-PadB3)*%
X131190000Y-105190000D03*
%TO.P,J1,B4*%
%TO.N,VBUS*%
X131590000Y-105890000D03*
%TO.P,J1,B5*%
%TO.N,Net-(J1-PadB5)*%
X131990000Y-105190000D03*
%TO.P,J1,B6*%
%TO.N,D+*%
X132390000Y-105890000D03*
%TO.P,J1,B7*%
%TO.N,D-*%
X133190000Y-105890000D03*
%TO.P,J1,B8*%
%TO.N,Net-(J1-PadB8)*%
X133590000Y-105190000D03*
%TO.P,J1,B9*%
%TO.N,VBUS*%
X133990000Y-105890000D03*
%TO.P,J1,B10*%
%TO.N,Net-(J1-PadB10)*%
X134390000Y-105190000D03*
%TO.P,J1,B11*%
%TO.N,D3V*%
X135190000Y-105190000D03*
%TO.P,J1,B12*%
%TO.N,GND*%
X135590000Y-105890000D03*
D14*
%TO.P,J1,S1*%
X128660000Y-105290000D03*
X136920000Y-105290000D03*
X128300000Y-100900000D03*
X137280000Y-100900000D03*
%TD*%
D10*
%TO.P,J3,1*%
%TO.N,D-*%
X124450000Y-105890000D03*
D11*
%TO.P,J3,2*%
%TO.N,D+*%
X126450000Y-105890000D03*
%TD*%
D15*
%TO.P,R1,1*%
%TO.N,GND*%
X147175000Y-108750000D03*
%TO.P,R1,2*%
%TO.N,Net-(J1-PadA5)*%
X145525000Y-108750000D03*
%TD*%
D16*
%TO.P,R2,1*%
%TO.N,Net-(J1-PadB5)*%
X145575000Y-110450000D03*
%TO.P,R2,2*%
%TO.N,GND*%
X147225000Y-110450000D03*
%TD*%
D17*
%TO.N,GND*%
X134490000Y-104040000D03*
%TO.N,3V3*%
X135990000Y-102040000D03*
X137090000Y-109140000D03*
X139850000Y-108650000D03*
%TO.N,VBUS*%
X140940000Y-109390000D03*
X130290000Y-110040000D03*
%TO.N,Net-(J1-PadA5)*%
X143950000Y-109000000D03*
X140900000Y-110550000D03*
%TO.N,D+*%
X132650000Y-109750000D03*
X129304100Y-107594100D03*
%TO.N,D-*%
X131700000Y-109150000D03*
X127500000Y-103500000D03*
%TO.N,Net-(J1-PadB5)*%
X146400000Y-103450000D03*
X144050000Y-110500000D03*
%TD*%
D18*
%TO.N,GND*%
X129390000Y-105290000D02*
X128660000Y-105290000D01*
X137280000Y-100900000D02*
X128300000Y-100900000D01*
D19*
X130040000Y-107100000D02*
X130040000Y-105940000D01*
D20*
X130040000Y-105940000D02*
X129990000Y-105890000D01*
D18*
X129990000Y-105890000D02*
X129390000Y-105290000D01*
X149940000Y-105890000D02*
X147940000Y-105890000D01*
D20*
X147225000Y-110450000D02*
X147225000Y-108800000D01*
D18*
X136190000Y-105290000D02*
X135590000Y-105890000D01*
D20*
X147225000Y-108800000D02*
X147175000Y-108750000D01*
D18*
X136920000Y-105290000D02*
X136920000Y-104870000D01*
D20*
X147175000Y-106655000D02*
X147940000Y-105890000D01*
D18*
X136920000Y-105290000D02*
X136190000Y-105290000D01*
D20*
X147175000Y-108750000D02*
X147175000Y-106655000D01*
D18*
X128300000Y-100900000D02*
X128300000Y-104930000D01*
X128300000Y-104930000D02*
X128660000Y-105290000D01*
D19*
X135540000Y-107100000D02*
X135540000Y-105940000D01*
D18*
X136920000Y-104870000D02*
X136090000Y-104040000D01*
X136090000Y-104040000D02*
X134490000Y-104040000D01*
X147940000Y-105890000D02*
X145940000Y-105890000D01*
D20*
X135540000Y-105940000D02*
X135590000Y-105890000D01*
%TO.N,3V3*%
X136090000Y-109140000D02*
X137090000Y-109140000D01*
X135040000Y-108090000D02*
X136090000Y-109140000D01*
X139850000Y-108650000D02*
X139850000Y-105980000D01*
X131690000Y-102040000D02*
X135990000Y-102040000D01*
X135040000Y-107100000D02*
X135040000Y-108090000D01*
X130390000Y-105190000D02*
X130390000Y-103340000D01*
X139850000Y-105980000D02*
X139940000Y-105890000D01*
X130390000Y-103340000D02*
X131690000Y-102040000D01*
D19*
%TO.N,VBUS*%
X134040000Y-105940000D02*
X133990000Y-105890000D01*
X134040000Y-107100000D02*
X134040000Y-105940000D01*
X131540000Y-107100000D02*
X131540000Y-108090000D01*
X131540000Y-107100000D02*
X131540000Y-105940000D01*
D18*
X141940000Y-105890000D02*
X141940000Y-108390000D01*
D19*
X131540000Y-105940000D02*
X131590000Y-105890000D01*
D18*
X131540000Y-108090000D02*
X130290000Y-109340000D01*
X130290000Y-109340000D02*
X130290000Y-110040000D01*
X141940000Y-108390000D02*
X140940000Y-109390000D01*
D20*
%TO.N,Net-(J1-PadA5)*%
X145275000Y-109000000D02*
X145525000Y-108750000D01*
X133540000Y-107800000D02*
X135555000Y-109815000D01*
X133540000Y-107100000D02*
X133540000Y-107800000D01*
X135555000Y-109815000D02*
X140165000Y-109815000D01*
X143950000Y-109000000D02*
X145275000Y-109000000D01*
X140165000Y-109815000D02*
X140900000Y-110550000D01*
%TO.N,D+*%
X133040000Y-109360000D02*
X133040000Y-107100000D01*
X132650000Y-109750000D02*
X133040000Y-109360000D01*
X126994100Y-107594100D02*
X129304100Y-107594100D01*
X126450000Y-105890000D02*
X126450000Y-107050000D01*
X126450000Y-107050000D02*
X126994100Y-107594100D01*
%TO.N,D-*%
X126300000Y-103500000D02*
X127500000Y-103500000D01*
X124450000Y-105350000D02*
X126300000Y-103500000D01*
X131700000Y-109150000D02*
X132540000Y-108310000D01*
X124450000Y-105890000D02*
X124450000Y-105350000D01*
X132540000Y-108310000D02*
X132540000Y-107100000D01*
%TO.N,D3V*%
X129490000Y-108850000D02*
X129490000Y-110640000D01*
X130250000Y-111400000D02*
X141500000Y-111400000D01*
X142760000Y-110140000D02*
X142760000Y-109190000D01*
X142760000Y-109190000D02*
X143940000Y-108010000D01*
X130540000Y-107100000D02*
X130540000Y-107800000D01*
X141500000Y-111400000D02*
X142760000Y-110140000D01*
X129490000Y-110640000D02*
X130250000Y-111400000D01*
X143940000Y-108010000D02*
X143940000Y-105890000D01*
X130540000Y-107800000D02*
X129490000Y-108850000D01*
%TO.N,Net-(J1-PadB5)*%
X145575000Y-110450000D02*
X144100000Y-110450000D01*
X134465000Y-102715000D02*
X145665000Y-102715000D01*
X131990000Y-105190000D02*
X134465000Y-102715000D01*
X145665000Y-102715000D02*
X146400000Y-103450000D01*
X144100000Y-110450000D02*
X144050000Y-110500000D01*
%TD*%
M02*
