%TF.GenerationSoftware,KiCad,Pcbnew,(6.0.8)*%
%TF.CreationDate,2023-01-11T07:54:23-05:00*%
%TF.ProjectId,Model-U-GCC-V2,4d6f6465-6c2d-4552-9d47-43432d56322e,rev?*%
%TF.SameCoordinates,Original*%
%TF.FileFunction,Copper,L2,Bot*%
%TF.FilePolarity,Positive*%
%FSLAX46Y46*%
G04 Gerber Fmt 4.6, Leading zero omitted, Abs format (unit mm)*
G04 Created by KiCad (PCBNEW (6.0.8)) date 2023-01-11 07:54:23*
%MOMM*%
%LPD*%
G01*
G04 APERTURE LIST*
%TA.AperFunction,ComponentPad*%
%ADD10R,1.350000X1.350000*%
%TD*%
%TA.AperFunction,ComponentPad*%
%ADD11O,1.350000X1.350000*%
%TD*%
%TA.AperFunction,ComponentPad*%
%ADD12C,0.650000*%
%TD*%
%TA.AperFunction,ComponentPad*%
%ADD13O,1.000000X1.600000*%
%TD*%
%TA.AperFunction,ViaPad*%
%ADD14C,0.800000*%
%TD*%
%TA.AperFunction,Conductor*%
%ADD15C,0.400000*%
%TD*%
%TA.AperFunction,Conductor*%
%ADD16C,0.250000*%
%TD*%
G04 APERTURE END LIST*
D10*
%TO.P,J2,1*%
%TO.N,3V3*%
X139940000Y-105890000D03*
D11*
%TO.P,J2,2*%
%TO.N,VBUS*%
X141940000Y-105890000D03*
%TO.P,J2,3*%
%TO.N,D3V*%
X143940000Y-105890000D03*
%TO.P,J2,4*%
%TO.N,GND*%
X145940000Y-105890000D03*
%TO.P,J2,5*%
X147940000Y-105890000D03*
%TO.P,J2,6*%
X149940000Y-105890000D03*
%TD*%
D12*
%TO.P,J1,B1*%
%TO.N,GND*%
X129990000Y-105890000D03*
%TO.P,J1,B2*%
%TO.N,3V3*%
X130390000Y-105190000D03*
%TO.P,J1,B3*%
%TO.N,Net-(J1-PadB3)*%
X131190000Y-105190000D03*
%TO.P,J1,B4*%
%TO.N,VBUS*%
X131590000Y-105890000D03*
%TO.P,J1,B5*%
%TO.N,Net-(J1-PadB5)*%
X131990000Y-105190000D03*
%TO.P,J1,B6*%
%TO.N,D+*%
X132390000Y-105890000D03*
%TO.P,J1,B7*%
%TO.N,D-*%
X133190000Y-105890000D03*
%TO.P,J1,B8*%
%TO.N,Net-(J1-PadB8)*%
X133590000Y-105190000D03*
%TO.P,J1,B9*%
%TO.N,VBUS*%
X133990000Y-105890000D03*
%TO.P,J1,B10*%
%TO.N,Net-(J1-PadB10)*%
X134390000Y-105190000D03*
%TO.P,J1,B11*%
%TO.N,D3V*%
X135190000Y-105190000D03*
%TO.P,J1,B12*%
%TO.N,GND*%
X135590000Y-105890000D03*
D13*
%TO.P,J1,S1*%
X128660000Y-105290000D03*
X136920000Y-105290000D03*
X128300000Y-100900000D03*
X137280000Y-100900000D03*
%TD*%
D10*
%TO.P,J3,1*%
%TO.N,D-*%
X124450000Y-105890000D03*
D11*
%TO.P,J3,2*%
%TO.N,D+*%
X126450000Y-105890000D03*
%TD*%
D14*
%TO.N,GND*%
X134490000Y-104040000D03*
%TO.N,3V3*%
X135990000Y-102040000D03*
X137090000Y-109140000D03*
X139850000Y-108650000D03*
%TO.N,VBUS*%
X140940000Y-109390000D03*
X130290000Y-110040000D03*
%TO.N,Net-(J1-PadA5)*%
X143950000Y-109000000D03*
X140900000Y-110550000D03*
%TO.N,D+*%
X132650000Y-109750000D03*
X129304100Y-107594100D03*
%TO.N,D-*%
X131700000Y-109150000D03*
X127500000Y-103500000D03*
%TO.N,Net-(J1-PadB5)*%
X146400000Y-103450000D03*
X144050000Y-110500000D03*
%TD*%
D15*
%TO.N,GND*%
X133890000Y-103440000D02*
X133890000Y-102640000D01*
X135630000Y-100900000D02*
X137280000Y-100900000D01*
X139490000Y-104340000D02*
X144390000Y-104340000D01*
X133890000Y-102640000D02*
X135630000Y-100900000D01*
X134490000Y-104040000D02*
X133890000Y-103440000D01*
X144390000Y-104340000D02*
X145940000Y-105890000D01*
X137280000Y-102130000D02*
X139490000Y-104340000D01*
X137280000Y-100900000D02*
X137280000Y-102130000D01*
D16*
%TO.N,3V3*%
X139140000Y-105890000D02*
X139940000Y-105890000D01*
X138590000Y-105340000D02*
X139140000Y-105890000D01*
X135990000Y-102040000D02*
X136290000Y-102040000D01*
X139850000Y-108650000D02*
X139360000Y-109140000D01*
X139360000Y-109140000D02*
X137090000Y-109140000D01*
X138590000Y-104340000D02*
X138590000Y-105340000D01*
X136290000Y-102040000D02*
X138590000Y-104340000D01*
D15*
%TO.N,VBUS*%
X133990000Y-109640000D02*
X132890000Y-110740000D01*
X132890000Y-110740000D02*
X130990000Y-110740000D01*
X130990000Y-110740000D02*
X130290000Y-110040000D01*
X133990000Y-105890000D02*
X136090000Y-107990000D01*
X140090000Y-110240000D02*
X140940000Y-109390000D01*
X133990000Y-105890000D02*
X133990000Y-109640000D01*
X136090000Y-107990000D02*
X136090000Y-109340000D01*
X136990000Y-110240000D02*
X140090000Y-110240000D01*
X136090000Y-109340000D02*
X136990000Y-110240000D01*
D16*
%TO.N,Net-(J1-PadA5)*%
X140900000Y-110550000D02*
X142450000Y-109000000D01*
X142450000Y-109000000D02*
X143950000Y-109000000D01*
%TO.N,D+*%
X132650000Y-109750000D02*
X132460000Y-109940000D01*
X130600000Y-109250000D02*
X130600000Y-108530000D01*
X129304100Y-107954100D02*
X129304100Y-107594100D01*
X132390000Y-106740000D02*
X132390000Y-105890000D01*
X132460000Y-109940000D02*
X131290000Y-109940000D01*
X131290000Y-109940000D02*
X129304100Y-107954100D01*
X130600000Y-108530000D02*
X132390000Y-106740000D01*
%TO.N,D-*%
X133190000Y-105788700D02*
X132791100Y-105389800D01*
X132700000Y-104050000D02*
X128050000Y-104050000D01*
X131700000Y-109150000D02*
X133190000Y-107660000D01*
X128050000Y-104050000D02*
X127500000Y-103500000D01*
X133190000Y-107660000D02*
X133190000Y-105890000D01*
X132791100Y-104141100D02*
X132700000Y-104050000D01*
X133190000Y-105890000D02*
X133190000Y-105788700D01*
X132791100Y-105389800D02*
X132791100Y-104141100D01*
%TO.N,D3V*%
X135790000Y-104040000D02*
X137490000Y-104040000D01*
X135190000Y-104640000D02*
X135790000Y-104040000D01*
X143490000Y-107740000D02*
X143940000Y-107290000D01*
X135190000Y-105190000D02*
X135190000Y-104640000D01*
X143940000Y-107290000D02*
X143940000Y-105890000D01*
X138590000Y-107740000D02*
X143490000Y-107740000D01*
X137990000Y-104540000D02*
X137990000Y-107140000D01*
X137490000Y-104040000D02*
X137990000Y-104540000D01*
X137990000Y-107140000D02*
X138590000Y-107740000D01*
%TO.N,Net-(J1-PadB5)*%
X146990000Y-106183503D02*
X146990000Y-104040000D01*
X146990000Y-104040000D02*
X146400000Y-103450000D01*
X146023503Y-107150000D02*
X146990000Y-106183503D01*
X144650000Y-109900000D02*
X144650000Y-108200000D01*
X144650000Y-108200000D02*
X145700000Y-107150000D01*
X145700000Y-107150000D02*
X146023503Y-107150000D01*
X144050000Y-110500000D02*
X144650000Y-109900000D01*
%TD*%
M02*
